<svg version="1" xmlns="http://www.w3.org/2000/svg" width="412" height="412" viewBox="0 0 309.000000 309.000000"><path d="M159.5 3.2c-6.5 2.3-14 12.2-21.4 28.3-2.3 4.9-4.8 10.3-5.6 12-5.7 12.2-7.8 17.2-7.8 18.2 0 .7-.4 1.3-.8 1.3s-1.1 1-1.5 2.2c-2.7 9-12 23.9-16.1 25.7-2.7 1.2-16.1 1.6-24.8.7-2.7-.3-9-1-14-1.5-4.9-.6-12.4-1.4-16.5-1.8-4.1-.4-14.2-.8-22.5-.8-16.3 0-19.7.8-25 5.7-2.6 2.4-3 3.4-3 8.6 0 11.3 5.9 18.7 38.8 48.4 22.2 20.2 28.2 27.1 28.1 32.7 0 4-3.3 14.9-7 22.9-1.3 2.9-2.4 5.5-2.4 5.7 0 .2-1.1 2.8-2.4 5.7-7.6 16.6-12.1 27.3-14.7 34.8-3.1 8.7-4.7 20.6-3.5 25.5 1 3.9 7 9.5 10.3 9.6 6.1.2 11-.4 14.1-1.6 1.7-.8 3.2-1.2 3.2-.9 0 .2 1.5-.3 3.3-1.3 1.7-.9 3.4-1.7 3.7-1.8.7-.1 11.6-5.7 16-8.2 1.9-1.1 6.7-3.9 10.5-6.1 3.9-2.2 9-5.1 11.5-6.6 8.4-5 24.5-12.5 28.1-13.1 6.3-1.2 12.6 3.2 39.4 27 20.3 18 26.9 23.5 28.3 23.5.6 0 1.2.4 1.4.8.6 1.8 9.7 6.1 14.1 6.7 8.4 1.3 15.3-3.1 17.1-10.9 1-4.3.8-18.4-.4-24.6-.6-3-1.3-7.1-1.6-9-.3-1.9-1.5-7.6-2.5-12.5-7.1-31.7-8.9-43.5-7.5-48.9.3-1.4 2.3-4.2 4.4-6.2 4.1-4 20-14.1 32.2-20.6 1.9-1 4.2-2.3 5-2.8.8-.5 6.9-4.2 13.5-8.2 7.8-4.7 14.5-9.7 19.1-14.3 6.2-6.1 7.2-7.6 7.8-11.7 2.1-13.8-9.9-20.5-43.4-24.3-3-.4-6.8-.8-8.5-1-1.6-.2-6.6-.7-11-1.1-4.4-.4-8.2-.8-8.5-.9-.3-.1-3.4-.5-7-.9-8.9-1.1-16.9-3-21.3-5.1-5.6-2.6-8.7-11.1-15.2-41-8.4-38.6-11.7-48.5-18.7-55.2-3.8-3.6-10.3-4.9-15.3-3.1z"/></svg>